<?xml version="1.0" encoding="UTF-8" standalone="no"?>
<!DOCTYPE svg PUBLIC "-//W3C//DTD SVG 1.1//EN"
 "http://www.w3.org/Graphics/SVG/1.1/DTD/svg11.dtd">
<!-- Generated by graphviz version 2.40.1 (20161225.0304)
 -->
<!-- Title: dependencies Pages: 1 -->
<svg width="2275pt" height="284pt"
 viewBox="0.00 0.00 2275.00 284.00" xmlns="http://www.w3.org/2000/svg" xmlns:xlink="http://www.w3.org/1999/xlink">
<g id="graph0" class="graph" transform="scale(1 1) rotate(0) translate(4 280)">
<title>dependencies</title>
<polygon fill="#ffffff" stroke="transparent" points="-4,4 -4,-280 2271,-280 2271,4 -4,4"/>
<text text-anchor="start" x="1112.5091" y="-42.4" font-family="sans-serif" font-weight="bold" font-size="14.00" fill="#000000">Legend</text>
<polygon fill="#ffffb3" stroke="transparent" points="899.5,-10 899.5,-30 919.5,-30 919.5,-10 899.5,-10"/>
<text text-anchor="start" x="923.129" y="-15.4" font-family="sans-serif" font-size="14.00" fill="#000000"> &#160;Declarations</text>
<polygon fill="#8dd3c7" stroke="transparent" points="1012.5,-10 1012.5,-30 1032.5,-30 1032.5,-10 1012.5,-10"/>
<text text-anchor="start" x="1036.2251" y="-15.4" font-family="sans-serif" font-size="14.00" fill="#000000"> &#160;Module</text>
<polygon fill="#80b1d3" stroke="transparent" points="1098.5,-10 1098.5,-30 1118.5,-30 1118.5,-10 1098.5,-10"/>
<text text-anchor="start" x="1122.2812" y="-15.4" font-family="sans-serif" font-size="14.00" fill="#000000"> &#160;Bootstrap</text>
<polygon fill="#fdb462" stroke="transparent" points="1195.5,-10 1195.5,-30 1215.5,-30 1215.5,-10 1195.5,-10"/>
<text text-anchor="start" x="1219.1732" y="-15.4" font-family="sans-serif" font-size="14.00" fill="#000000"> &#160;Providers</text>
<polygon fill="#fb8072" stroke="transparent" points="1291.5,-10 1291.5,-30 1311.5,-30 1311.5,-10 1291.5,-10"/>
<text text-anchor="start" x="1315.2258" y="-15.4" font-family="sans-serif" font-size="14.00" fill="#000000"> &#160;Exports</text>
<g id="clust1" class="cluster">
<title>cluster_AppModule</title>
<polygon fill="none" stroke="#000000" stroke-dasharray="1,5" points="8,-70 8,-268 2259,-268 2259,-70 8,-70"/>
</g>
<g id="clust2" class="cluster">
<title>cluster_AppModule_declarations</title>
<polygon fill="none" stroke="#000000" points="1064,-78 1064,-130 2251,-130 2251,-78 1064,-78"/>
</g>
<g id="clust16" class="cluster">
<title>cluster_AppModule_bootstrap</title>
<polygon fill="none" stroke="#000000" points="1301,-208 1301,-260 1389,-260 1389,-208 1301,-208"/>
</g>
<g id="clust17" class="cluster">
<title>cluster_AppModule_providers</title>
<polygon fill="none" stroke="#000000" points="16,-78 16,-130 1056,-130 1056,-78 16,-78"/>
</g>
<!-- AddFriendPage -->
<g id="node1" class="node">
<title>AddFriendPage</title>
<polygon fill="#ffffb3" stroke="#000000" points="2242.8669,-122 2139.1331,-122 2139.1331,-86 2242.8669,-86 2242.8669,-122"/>
<text text-anchor="middle" x="2191" y="-99.8" font-family="Times,serif" font-size="14.00" fill="#000000">AddFriendPage</text>
</g>
<!-- AppModule -->
<g id="node12" class="node">
<title>AppModule</title>
<polygon fill="#8dd3c7" stroke="#000000" points="1386.6571,-187 1383.6571,-191 1362.6571,-191 1359.6571,-187 1303.3429,-187 1303.3429,-151 1386.6571,-151 1386.6571,-187"/>
<text text-anchor="middle" x="1345" y="-164.8" font-family="Times,serif" font-size="14.00" fill="#000000">AppModule</text>
</g>
<!-- AddFriendPage&#45;&gt;AppModule -->
<g id="edge1" class="edge">
<title>AddFriendPage&#45;&gt;AppModule</title>
<path fill="none" stroke="#000000" d="M2191,-122.3228C2191,-145.6602 2191,-183 2191,-183 2191,-183 1396.6647,-183 1396.6647,-183"/>
<polygon fill="#000000" stroke="#000000" points="1396.6647,-179.5001 1386.6647,-183 1396.6647,-186.5001 1396.6647,-179.5001"/>
</g>
<!-- ChatMorsePage -->
<g id="node2" class="node">
<title>ChatMorsePage</title>
<polygon fill="#ffffb3" stroke="#000000" points="2120.9188,-122 2015.0812,-122 2015.0812,-86 2120.9188,-86 2120.9188,-122"/>
<text text-anchor="middle" x="2068" y="-99.8" font-family="Times,serif" font-size="14.00" fill="#000000">ChatMorsePage</text>
</g>
<!-- ChatMorsePage&#45;&gt;AppModule -->
<g id="edge2" class="edge">
<title>ChatMorsePage&#45;&gt;AppModule</title>
<path fill="none" stroke="#000000" d="M2068,-122.1554C2068,-144.3519 2068,-179 2068,-179 2068,-179 1396.7321,-179 1396.7321,-179"/>
<polygon fill="#000000" stroke="#000000" points="1396.7322,-175.5001 1386.7321,-179 1396.7321,-182.5001 1396.7322,-175.5001"/>
</g>
<!-- ChatPage -->
<g id="node3" class="node">
<title>ChatPage</title>
<polygon fill="#ffffb3" stroke="#000000" points="1996.6545,-122 1927.3455,-122 1927.3455,-86 1996.6545,-86 1996.6545,-122"/>
<text text-anchor="middle" x="1962" y="-99.8" font-family="Times,serif" font-size="14.00" fill="#000000">ChatPage</text>
</g>
<!-- ChatPage&#45;&gt;AppModule -->
<g id="edge3" class="edge">
<title>ChatPage&#45;&gt;AppModule</title>
<path fill="none" stroke="#000000" d="M1962,-122.2843C1962,-143.3211 1962,-175 1962,-175 1962,-175 1396.9238,-175 1396.9238,-175"/>
<polygon fill="#000000" stroke="#000000" points="1396.9239,-171.5001 1386.9238,-175 1396.9238,-178.5001 1396.9239,-171.5001"/>
</g>
<!-- HomePage -->
<g id="node4" class="node">
<title>HomePage</title>
<polygon fill="#ffffb3" stroke="#000000" points="1908.9248,-122 1831.0752,-122 1831.0752,-86 1908.9248,-86 1908.9248,-122"/>
<text text-anchor="middle" x="1870" y="-99.8" font-family="Times,serif" font-size="14.00" fill="#000000">HomePage</text>
</g>
<!-- HomePage&#45;&gt;AppModule -->
<g id="edge4" class="edge">
<title>HomePage&#45;&gt;AppModule</title>
<path fill="none" stroke="#000000" d="M1870,-122.308C1870,-142.1455 1870,-171 1870,-171 1870,-171 1397.0755,-171 1397.0755,-171"/>
<polygon fill="#000000" stroke="#000000" points="1397.0755,-167.5001 1387.0755,-171 1397.0755,-174.5001 1397.0755,-167.5001"/>
</g>
<!-- IonTextAvatar -->
<g id="node5" class="node">
<title>IonTextAvatar</title>
<polygon fill="#ffffb3" stroke="#000000" points="1813.4062,-122 1714.5938,-122 1714.5938,-86 1813.4062,-86 1813.4062,-122"/>
<text text-anchor="middle" x="1764" y="-99.8" font-family="Times,serif" font-size="14.00" fill="#000000">IonTextAvatar</text>
</g>
<!-- IonTextAvatar&#45;&gt;AppModule -->
<g id="edge5" class="edge">
<title>IonTextAvatar&#45;&gt;AppModule</title>
<path fill="none" stroke="#000000" d="M1764,-122.2222C1764,-140.8285 1764,-167 1764,-167 1764,-167 1396.7072,-167 1396.7072,-167"/>
<polygon fill="#000000" stroke="#000000" points="1396.7072,-163.5001 1386.7072,-167 1396.7071,-170.5001 1396.7072,-163.5001"/>
</g>
<!-- LoginPage -->
<g id="node6" class="node">
<title>LoginPage</title>
<polygon fill="#ffffb3" stroke="#000000" points="1696.1558,-122 1619.8442,-122 1619.8442,-86 1696.1558,-86 1696.1558,-122"/>
<text text-anchor="middle" x="1658" y="-99.8" font-family="Times,serif" font-size="14.00" fill="#000000">LoginPage</text>
</g>
<!-- LoginPage&#45;&gt;AppModule -->
<g id="edge6" class="edge">
<title>LoginPage&#45;&gt;AppModule</title>
<path fill="none" stroke="#000000" d="M1658,-122.0225C1658,-139.3734 1658,-163 1658,-163 1658,-163 1396.8878,-163 1396.8878,-163"/>
<polygon fill="#000000" stroke="#000000" points="1396.8878,-159.5001 1386.8878,-163 1396.8878,-166.5001 1396.8878,-159.5001"/>
</g>
<!-- LostpasswordPage -->
<g id="node7" class="node">
<title>LostpasswordPage</title>
<polygon fill="#ffffb3" stroke="#000000" points="1601.4706,-122 1480.5294,-122 1480.5294,-86 1601.4706,-86 1601.4706,-122"/>
<text text-anchor="middle" x="1541" y="-99.8" font-family="Times,serif" font-size="14.00" fill="#000000">LostpasswordPage</text>
</g>
<!-- LostpasswordPage&#45;&gt;AppModule -->
<g id="edge7" class="edge">
<title>LostpasswordPage&#45;&gt;AppModule</title>
<path fill="none" stroke="#000000" d="M1541,-122.0091C1541,-138.0494 1541,-159 1541,-159 1541,-159 1397.0469,-159 1397.0469,-159"/>
<polygon fill="#000000" stroke="#000000" points="1397.047,-155.5001 1387.0469,-159 1397.0469,-162.5001 1397.047,-155.5001"/>
</g>
<!-- MyApp -->
<g id="node8" class="node">
<title>MyApp</title>
<polygon fill="#ffffb3" stroke="#000000" points="1462.5529,-122 1403.4471,-122 1403.4471,-86 1462.5529,-86 1462.5529,-122"/>
<text text-anchor="middle" x="1433" y="-99.8" font-family="Times,serif" font-size="14.00" fill="#000000">MyApp</text>
</g>
<!-- MyApp&#45;&gt;AppModule -->
<g id="edge8" class="edge">
<title>MyApp&#45;&gt;AppModule</title>
<path fill="none" stroke="#000000" d="M1433,-122.1243C1433,-136.7832 1433,-155 1433,-155 1433,-155 1396.6806,-155 1396.6806,-155"/>
<polygon fill="#000000" stroke="#000000" points="1396.6807,-151.5001 1386.6806,-155 1396.6806,-158.5001 1396.6807,-151.5001"/>
</g>
<!-- ProfilePage -->
<g id="node9" class="node">
<title>ProfilePage</title>
<polygon fill="#ffffb3" stroke="#000000" points="1385.812,-122 1304.188,-122 1304.188,-86 1385.812,-86 1385.812,-122"/>
<text text-anchor="middle" x="1345" y="-99.8" font-family="Times,serif" font-size="14.00" fill="#000000">ProfilePage</text>
</g>
<!-- ProfilePage&#45;&gt;AppModule -->
<g id="edge9" class="edge">
<title>ProfilePage&#45;&gt;AppModule</title>
<path fill="none" stroke="#000000" d="M1345,-122.1061C1345,-122.1061 1345,-140.991 1345,-140.991"/>
<polygon fill="#000000" stroke="#000000" points="1341.5001,-140.9909 1345,-150.991 1348.5001,-140.991 1341.5001,-140.9909"/>
</g>
<!-- RegisterPage -->
<g id="node10" class="node">
<title>RegisterPage</title>
<polygon fill="#ffffb3" stroke="#000000" points="1285.8641,-122 1196.1359,-122 1196.1359,-86 1285.8641,-86 1285.8641,-122"/>
<text text-anchor="middle" x="1241" y="-99.8" font-family="Times,serif" font-size="14.00" fill="#000000">RegisterPage</text>
</g>
<!-- RegisterPage&#45;&gt;AppModule -->
<g id="edge10" class="edge">
<title>RegisterPage&#45;&gt;AppModule</title>
<path fill="none" stroke="#000000" d="M1241,-122.1243C1241,-136.7832 1241,-155 1241,-155 1241,-155 1293.2985,-155 1293.2985,-155"/>
<polygon fill="#000000" stroke="#000000" points="1293.2985,-158.5001 1303.2985,-155 1293.2984,-151.5001 1293.2985,-158.5001"/>
</g>
<!-- RelatioshipPage -->
<g id="node11" class="node">
<title>RelatioshipPage</title>
<polygon fill="#ffffb3" stroke="#000000" points="1178.4846,-122 1071.5154,-122 1071.5154,-86 1178.4846,-86 1178.4846,-122"/>
<text text-anchor="middle" x="1125" y="-99.8" font-family="Times,serif" font-size="14.00" fill="#000000">RelatioshipPage</text>
</g>
<!-- RelatioshipPage&#45;&gt;AppModule -->
<g id="edge11" class="edge">
<title>RelatioshipPage&#45;&gt;AppModule</title>
<path fill="none" stroke="#000000" d="M1125,-122.0091C1125,-138.0494 1125,-159 1125,-159 1125,-159 1293.1018,-159 1293.1018,-159"/>
<polygon fill="#000000" stroke="#000000" points="1293.1019,-162.5001 1303.1018,-159 1293.1018,-155.5001 1293.1019,-162.5001"/>
</g>
<!-- IonicApp  -->
<g id="node13" class="node">
<title>IonicApp </title>
<polygon fill="#80b1d3" stroke="#000000" points="1381.3734,-252 1308.6266,-252 1308.6266,-216 1381.3734,-216 1381.3734,-252"/>
<text text-anchor="middle" x="1345" y="-229.8" font-family="Times,serif" font-size="14.00" fill="#000000">IonicApp </text>
</g>
<!-- AppModule&#45;&gt;IonicApp  -->
<g id="edge12" class="edge">
<title>AppModule&#45;&gt;IonicApp </title>
<path fill="none" stroke="#000000" stroke-dasharray="1,5" d="M1345,-187.1061C1345,-187.1061 1345,-205.991 1345,-205.991"/>
<polygon fill="#000000" stroke="#000000" points="1341.5001,-205.9909 1345,-215.991 1348.5001,-205.991 1341.5001,-205.9909"/>
</g>
<!-- ChangePasswordProvider -->
<g id="node14" class="node">
<title>ChangePasswordProvider</title>
<ellipse fill="#fdb462" stroke="#000000" cx="937" cy="-104" rx="110.5974" ry="18"/>
<text text-anchor="middle" x="937" y="-99.8" font-family="Times,serif" font-size="14.00" fill="#000000">ChangePasswordProvider</text>
</g>
<!-- ChangePasswordProvider&#45;&gt;AppModule -->
<g id="edge13" class="edge">
<title>ChangePasswordProvider&#45;&gt;AppModule</title>
<path fill="none" stroke="#000000" d="M937,-122.0225C937,-139.3734 937,-163 937,-163 937,-163 1293.2542,-163 1293.2542,-163"/>
<polygon fill="#000000" stroke="#000000" points="1293.2543,-166.5001 1303.2542,-163 1293.2542,-159.5001 1293.2543,-166.5001"/>
</g>
<!-- DataProvider -->
<g id="node15" class="node">
<title>DataProvider</title>
<ellipse fill="#fdb462" stroke="#000000" cx="746" cy="-104" rx="62.5373" ry="18"/>
<text text-anchor="middle" x="746" y="-99.8" font-family="Times,serif" font-size="14.00" fill="#000000">DataProvider</text>
</g>
<!-- DataProvider&#45;&gt;AppModule -->
<g id="edge14" class="edge">
<title>DataProvider&#45;&gt;AppModule</title>
<path fill="none" stroke="#000000" d="M746,-122.2222C746,-140.8285 746,-167 746,-167 746,-167 1292.8795,-167 1292.8795,-167"/>
<polygon fill="#000000" stroke="#000000" points="1292.8795,-170.5001 1302.8795,-167 1292.8794,-163.5001 1292.8795,-170.5001"/>
</g>
<!-- LoginProvider -->
<g id="node16" class="node">
<title>LoginProvider</title>
<ellipse fill="#fdb462" stroke="#000000" cx="598" cy="-104" rx="67.2177" ry="18"/>
<text text-anchor="middle" x="598" y="-99.8" font-family="Times,serif" font-size="14.00" fill="#000000">LoginProvider</text>
</g>
<!-- LoginProvider&#45;&gt;AppModule -->
<g id="edge15" class="edge">
<title>LoginProvider&#45;&gt;AppModule</title>
<path fill="none" stroke="#000000" d="M598,-122.308C598,-142.1455 598,-171 598,-171 598,-171 1293.2374,-171 1293.2374,-171"/>
<polygon fill="#000000" stroke="#000000" points="1293.2374,-174.5001 1303.2374,-171 1293.2374,-167.5001 1293.2374,-174.5001"/>
</g>
<!-- MorseProvider -->
<g id="node17" class="node">
<title>MorseProvider</title>
<ellipse fill="#fdb462" stroke="#000000" cx="444" cy="-104" rx="68.9197" ry="18"/>
<text text-anchor="middle" x="444" y="-99.8" font-family="Times,serif" font-size="14.00" fill="#000000">MorseProvider</text>
</g>
<!-- MorseProvider&#45;&gt;AppModule -->
<g id="edge16" class="edge">
<title>MorseProvider&#45;&gt;AppModule</title>
<path fill="none" stroke="#000000" d="M444,-122.2843C444,-143.3211 444,-175 444,-175 444,-175 1293.0511,-175 1293.0511,-175"/>
<polygon fill="#000000" stroke="#000000" points="1293.0512,-178.5001 1303.0511,-175 1293.0511,-171.5001 1293.0512,-178.5001"/>
</g>
<!-- RegisterProvider -->
<g id="node18" class="node">
<title>RegisterProvider</title>
<ellipse fill="#fdb462" stroke="#000000" cx="281" cy="-104" rx="76.4401" ry="18"/>
<text text-anchor="middle" x="281" y="-99.8" font-family="Times,serif" font-size="14.00" fill="#000000">RegisterProvider</text>
</g>
<!-- RegisterProvider&#45;&gt;AppModule -->
<g id="edge17" class="edge">
<title>RegisterProvider&#45;&gt;AppModule</title>
<path fill="none" stroke="#000000" d="M281,-122.1554C281,-144.3519 281,-179 281,-179 281,-179 1293.2899,-179 1293.2899,-179"/>
<polygon fill="#000000" stroke="#000000" points="1293.29,-182.5001 1303.2899,-179 1293.2899,-175.5001 1293.29,-182.5001"/>
</g>
<!-- VibrationProvider -->
<g id="node19" class="node">
<title>VibrationProvider</title>
<ellipse fill="#fdb462" stroke="#000000" cx="105" cy="-104" rx="81.0994" ry="18"/>
<text text-anchor="middle" x="105" y="-99.8" font-family="Times,serif" font-size="14.00" fill="#000000">VibrationProvider</text>
</g>
<!-- VibrationProvider&#45;&gt;AppModule -->
<g id="edge18" class="edge">
<title>VibrationProvider&#45;&gt;AppModule</title>
<path fill="none" stroke="#000000" d="M105,-122.3228C105,-145.6602 105,-183 105,-183 105,-183 1293.0325,-183 1293.0325,-183"/>
<polygon fill="#000000" stroke="#000000" points="1293.0325,-186.5001 1303.0325,-183 1293.0324,-179.5001 1293.0325,-186.5001"/>
</g>
</g>
</svg>
